<?xml version="1.0" encoding="utf-8"?>
<!-- Generator: Adobe Illustrator 24.2.1, SVG Export Plug-In . SVG Version: 6.00 Build 0)  -->
<svg version="1.1" id="Capa_1" xmlns="http://www.w3.org/2000/svg" xmlns:xlink="http://www.w3.org/1999/xlink" x="0px" y="0px"
	 viewBox="0 0 100 96.4" style="enable-background:new 0 0 100 96.4;" xml:space="preserve">
<g>
	<path d="M81.9,3.7h-6.1l0,0l0,0H23.9l0,0l0,0h-5.8c-3.6,0-6.9,1.5-9.3,3.8C6.5,9.9,5,13.2,5,16.8v5.8V40v5.8c0,3.6,1.5,6.9,3.8,9.3
		c2.4,2.4,5.6,3.8,9.3,3.8h3.4v7.6c0,15.1,12.2,27.3,27.3,27.3h0c8.2,0,15.6-3,21-7.9c5.4-4.9,8.8-11.8,8.8-19.3l0,0l0,0l-0.2-7.5
		h3.6c3.6,0,6.9-1.5,9.2-3.8c2.4-2.4,3.8-5.6,3.8-9.3V40V22.6v-5.8C95,9.6,89.1,3.7,81.9,3.7z M92.1,38.6c-5.7,0.3-10.8,3.2-14,7.5
		c-0.1-1.9-0.9-3.7-2.2-5c-1.4-1.4-3.2-2.4-5.3-2.6l0,0l-0.1,0h0c-2.3,0-4.4,0.7-6,1.9c-1.6,1.2-2.7,3-3.1,5.1l0,0L59.4,56l-34.2,0
		c-0.7-9.2-8.1-16.6-17.3-17.4V23.9c9.2-0.7,16.6-8.1,17.3-17.3h49.1c0.4,4.6,2.4,8.8,5.4,11.9c3.2,3.2,7.5,5.2,12.3,5.5L92.1,38.6
		L92.1,38.6z M10.9,9.6c1.8-1.8,4.4-3,7.2-3h4.3c-0.3,3.8-2,7.3-4.6,9.8c-2.6,2.6-6,4.3-9.8,4.6v-4.3C7.9,14,9,11.4,10.9,9.6z
		 M7.9,45.8v-4.3c3.8,0.3,7.3,2,9.8,4.6c2.6,2.6,4.3,6,4.6,9.8h-4.3C12.4,56,7.9,51.4,7.9,45.8z M67.8,83.6
		c-4.9,4.4-11.6,7.2-19.1,7.2h0c-6.7,0-12.8-2.7-17.2-7.1c-4.4-4.4-7.1-10.5-7.1-17.2l0,0v-7.6l29,0c-0.2,0.2-0.4,0.3-0.6,0.5
		c-2.1,2-3.6,4.9-4.1,8.5c-0.1,0.8,0.4,1.5,1.2,1.6c0.8,0.1,1.5-0.4,1.6-1.2c0.4-3,1.6-5.2,3.2-6.8c1.6-1.5,3.7-2.4,6-2.6l0.1,0
		l0.1,0l0.1,0l0.1,0l0.1,0l0.1,0l0.1-0.1l0.1,0l0,0l0.1-0.1l0.1-0.1l0,0l0.1-0.1l0.1-0.1l0-0.1l0.1-0.1l0-0.1l0-0.1l0-0.1l0-0.1l0,0
		l0,0l2.1-11.6c0.3-1.3,0.9-2.5,2-3.3c1-0.8,2.5-1.3,4.2-1.3c1.4,0.1,2.6,0.7,3.4,1.7c0.9,0.9,1.4,2.2,1.4,3.5v0l0.4,19.8
		C75.6,73.1,72.6,79.2,67.8,83.6z M89.1,53c-1.8,1.8-4.4,3-7.2,3h-3.6l-0.1-4.1c2.1-5.7,7.5-10,13.9-10.4v4.3
		C92.1,48.6,91,51.2,89.1,53z M92.1,21.1C84.3,20.5,78,14.4,77.3,6.6h4.6c2.8,0,5.3,1.1,7.2,3c1.8,1.8,3,4.4,3,7.2
		C92.1,16.8,92.1,21.1,92.1,21.1z"/>
	<path d="M53.2,29.8h-6.4c-1,0-1.9-0.4-2.5-1c-0.6-0.6-1-1.5-1-2.5c0-1,0.4-1.8,1-2.5c0.6-0.6,1.5-1,2.5-1h9.3
		c0.8,0,1.5-0.6,1.5-1.5c0-0.8-0.7-1.5-1.5-1.5h-4.7v-2.5c0-0.8-0.7-1.5-1.5-1.5s-1.5,0.7-1.5,1.5v2.5h-1.8c-1.8,0-3.4,0.7-4.6,1.9
		c-1.2,1.2-1.9,2.8-1.9,4.5c0,1.8,0.7,3.4,1.9,4.5c1.2,1.2,2.8,1.9,4.6,1.9h6.4c1,0,1.9,0.4,2.5,1c0.6,0.6,1,1.5,1,2.5
		c0,1-0.4,1.8-1,2.5c-0.6,0.6-1.5,1-2.5,1h-3l-0.2,0l-0.2,0h-6c-0.8,0-1.5,0.7-1.5,1.5s0.7,1.5,1.5,1.5l0,0h4.7v2.5
		c0,0.8,0.7,1.5,1.5,1.5s1.5-0.7,1.5-1.5v-2.5h1.8c1.8,0,3.4-0.7,4.6-1.9c1.2-1.2,1.9-2.8,1.9-4.5c0-1.8-0.7-3.4-1.9-4.5
		C56.6,30.6,55,29.8,53.2,29.8z"/>
</g>
</svg>
